<?xml version="1.0" encoding="utf-8"?>
<!-- Generator: Adobe Illustrator 23.0.0, SVG Export Plug-In . SVG Version: 6.00 Build 0)  -->
<svg version="1.1" xmlns="http://www.w3.org/2000/svg" xmlns:xlink="http://www.w3.org/1999/xlink" x="0px" y="0px"
	 viewBox="0 0 512 512" style="enable-background:new 0 0 512 512;" xml:space="preserve">
<style type="text/css">
	.st0{display:none;}
	.st1{display:inline;fill:#FFFFFF;}
	.st2{display:inline;}
	.st3{fill:none;stroke:#E6E7E8;stroke-miterlimit:10;}
	.st4{fill:none;stroke:#D0D2D3;stroke-miterlimit:10;}
	.st5{display:inline;fill:none;stroke:#BBBDBF;stroke-miterlimit:10;}
	.st6{fill:#10AC84;}
	.st7{fill:#222F3E;stroke:#222F3E;stroke-width:1.6338;stroke-miterlimit:10;}
	.st8{fill:#FFFFFF;}
</style>
<g id="grid" class="st0">
	<rect x="0.1" y="-0.1" class="st1" width="512" height="512"/>
	<g class="st2">
		<rect x="0.1" y="-0.1" class="st3" width="512" height="512"/>
		<line class="st3" x1="0.1" y1="501.2" x2="512.1" y2="501.2"/>
		<line class="st3" x1="0.1" y1="490.5" x2="512.1" y2="490.5"/>
		<line class="st3" x1="0.1" y1="479.9" x2="512.1" y2="479.9"/>
		<line class="st3" x1="0.1" y1="469.2" x2="512.1" y2="469.2"/>
		<line class="st3" x1="0.1" y1="458.5" x2="512.1" y2="458.5"/>
		<line class="st3" x1="0.1" y1="447.9" x2="512.1" y2="447.9"/>
		<line class="st3" x1="0.1" y1="437.2" x2="512.1" y2="437.2"/>
		<line class="st3" x1="0.1" y1="426.5" x2="512.1" y2="426.5"/>
		<line class="st3" x1="0.1" y1="415.9" x2="512.1" y2="415.9"/>
		<line class="st3" x1="0.1" y1="405.2" x2="512.1" y2="405.2"/>
		<line class="st3" x1="0.1" y1="394.5" x2="512.1" y2="394.5"/>
		<line class="st3" x1="0.1" y1="383.9" x2="512.1" y2="383.9"/>
		<line class="st3" x1="0.1" y1="373.2" x2="512.1" y2="373.2"/>
		<line class="st3" x1="0.1" y1="362.5" x2="512.1" y2="362.5"/>
		<line class="st3" x1="0.1" y1="351.9" x2="512.1" y2="351.9"/>
		<line class="st3" x1="0.1" y1="341.2" x2="512.1" y2="341.2"/>
		<line class="st4" x1="0.1" y1="330.5" x2="512.1" y2="330.5"/>
		<line class="st3" x1="0.1" y1="319.9" x2="512.1" y2="319.9"/>
		<line class="st3" x1="0.1" y1="309.2" x2="512.1" y2="309.2"/>
		<line class="st3" x1="0.1" y1="298.5" x2="512.1" y2="298.5"/>
		<line class="st3" x1="0.1" y1="287.9" x2="512.1" y2="287.9"/>
		<line class="st3" x1="0.1" y1="277.2" x2="512.1" y2="277.2"/>
		<line class="st3" x1="0.1" y1="266.5" x2="512.1" y2="266.5"/>
		<line class="st3" x1="0.1" y1="245.2" x2="512.1" y2="245.2"/>
		<line class="st3" x1="0.1" y1="234.5" x2="512.1" y2="234.5"/>
		<line class="st3" x1="0.1" y1="223.9" x2="512.1" y2="223.9"/>
		<line class="st3" x1="0.1" y1="213.2" x2="512.1" y2="213.2"/>
		<line class="st3" x1="0.1" y1="202.5" x2="512.1" y2="202.5"/>
		<line class="st3" x1="0.1" y1="191.9" x2="512.1" y2="191.9"/>
		<line class="st4" x1="0.1" y1="181.2" x2="512.1" y2="181.2"/>
		<line class="st3" x1="0.1" y1="170.5" x2="512.1" y2="170.5"/>
		<line class="st3" x1="0.1" y1="159.9" x2="512.1" y2="159.9"/>
		<line class="st3" x1="0.1" y1="149.2" x2="512.1" y2="149.2"/>
		<line class="st3" x1="0.1" y1="138.5" x2="512.1" y2="138.5"/>
		<line class="st3" x1="0.1" y1="127.9" x2="512.1" y2="127.9"/>
		<line class="st3" x1="0.1" y1="117.2" x2="512.1" y2="117.2"/>
		<line class="st3" x1="0.1" y1="106.5" x2="512.1" y2="106.5"/>
		<line class="st3" x1="0.1" y1="95.9" x2="512.1" y2="95.9"/>
		<line class="st3" x1="0.1" y1="85.2" x2="512.1" y2="85.2"/>
		<line class="st3" x1="0.1" y1="74.5" x2="512.1" y2="74.5"/>
		<line class="st3" x1="0.1" y1="63.9" x2="512.1" y2="63.9"/>
		<line class="st3" x1="0.1" y1="53.2" x2="512.1" y2="53.2"/>
		<line class="st3" x1="0.1" y1="42.5" x2="512.1" y2="42.5"/>
		<line class="st3" x1="0.1" y1="31.9" x2="512.1" y2="31.9"/>
		<line class="st3" x1="0.1" y1="21.2" x2="512.1" y2="21.2"/>
		<line class="st3" x1="0.1" y1="10.5" x2="512.1" y2="10.5"/>
		<line class="st3" x1="501.4" y1="-0.1" x2="501.4" y2="511.9"/>
		<line class="st3" x1="490.7" y1="-0.1" x2="490.7" y2="511.9"/>
		<line class="st3" x1="480.1" y1="-0.1" x2="480.1" y2="511.9"/>
		<line class="st3" x1="469.4" y1="-0.1" x2="469.4" y2="511.9"/>
		<line class="st3" x1="458.7" y1="-0.1" x2="458.7" y2="511.9"/>
		<line class="st3" x1="448.1" y1="-0.1" x2="448.1" y2="511.9"/>
		<line class="st3" x1="437.4" y1="-0.1" x2="437.4" y2="511.9"/>
		<line class="st3" x1="426.7" y1="-0.1" x2="426.7" y2="511.9"/>
		<line class="st3" x1="416.1" y1="-0.1" x2="416.1" y2="511.9"/>
		<line class="st3" x1="405.4" y1="-0.1" x2="405.4" y2="511.9"/>
		<line class="st3" x1="394.7" y1="-0.1" x2="394.7" y2="511.9"/>
		<line class="st3" x1="384.1" y1="-0.1" x2="384.1" y2="511.9"/>
		<line class="st3" x1="373.4" y1="-0.1" x2="373.4" y2="511.9"/>
		<line class="st3" x1="362.7" y1="-0.1" x2="362.7" y2="511.9"/>
		<line class="st3" x1="352.1" y1="-0.1" x2="352.1" y2="511.9"/>
		<line class="st3" x1="341.4" y1="-0.1" x2="341.4" y2="511.9"/>
		<line class="st4" x1="330.7" y1="-0.1" x2="330.7" y2="511.9"/>
		<line class="st3" x1="320.1" y1="-0.1" x2="320.1" y2="511.9"/>
		<line class="st3" x1="309.4" y1="-0.1" x2="309.4" y2="511.9"/>
		<line class="st3" x1="298.7" y1="-0.1" x2="298.7" y2="511.9"/>
		<line class="st3" x1="288.1" y1="-0.1" x2="288.1" y2="511.9"/>
		<line class="st3" x1="277.4" y1="-0.1" x2="277.4" y2="511.9"/>
		<line class="st3" x1="266.7" y1="-0.1" x2="266.7" y2="511.9"/>
		<line class="st3" x1="245.4" y1="-0.1" x2="245.4" y2="511.9"/>
		<line class="st3" x1="234.7" y1="-0.1" x2="234.7" y2="511.9"/>
		<line class="st3" x1="224.1" y1="-0.1" x2="224.1" y2="511.9"/>
		<line class="st3" x1="213.4" y1="-0.1" x2="213.4" y2="511.9"/>
		<line class="st3" x1="202.7" y1="-0.1" x2="202.7" y2="511.9"/>
		<line class="st3" x1="192.1" y1="-0.1" x2="192.1" y2="511.9"/>
		<line class="st4" x1="181.4" y1="-0.1" x2="181.4" y2="511.9"/>
		<line class="st3" x1="170.7" y1="-0.1" x2="170.7" y2="511.9"/>
		<line class="st3" x1="160.1" y1="-0.1" x2="160.1" y2="511.9"/>
		<line class="st3" x1="149.4" y1="-0.1" x2="149.4" y2="511.9"/>
		<line class="st3" x1="138.7" y1="-0.1" x2="138.7" y2="511.9"/>
		<line class="st3" x1="128.1" y1="-0.1" x2="128.1" y2="511.9"/>
		<line class="st3" x1="117.4" y1="-0.1" x2="117.4" y2="511.9"/>
		<line class="st3" x1="106.7" y1="-0.1" x2="106.7" y2="511.9"/>
		<line class="st3" x1="96.1" y1="-0.1" x2="96.1" y2="511.9"/>
		<line class="st3" x1="85.4" y1="-0.1" x2="85.4" y2="511.9"/>
		<line class="st3" x1="74.7" y1="-0.1" x2="74.7" y2="511.9"/>
		<line class="st3" x1="64.1" y1="-0.1" x2="64.1" y2="511.9"/>
		<line class="st3" x1="53.4" y1="-0.1" x2="53.4" y2="511.9"/>
		<line class="st3" x1="42.7" y1="-0.1" x2="42.7" y2="511.9"/>
		<line class="st3" x1="32.1" y1="-0.1" x2="32.1" y2="511.9"/>
		<line class="st3" x1="21.4" y1="-0.1" x2="21.4" y2="511.9"/>
		<line class="st3" x1="10.7" y1="-0.1" x2="10.7" y2="511.9"/>
		<line class="st4" x1="0.1" y1="255.9" x2="512.1" y2="255.9"/>
		<line class="st4" x1="256.1" y1="-0.1" x2="256.1" y2="511.9"/>
		<line class="st4" x1="512.1" y1="-0.1" x2="0.1" y2="511.9"/>
		<line class="st4" x1="0.1" y1="-0.1" x2="512.1" y2="511.9"/>
		<circle class="st4" cx="256.1" cy="255.9" r="106.7"/>
	</g>
	<path class="st5" d="M394.4,490.5H117.5c-17.7,0-32.1-14.4-32.1-32.1V53.3c0-17.7,14.4-32.1,32.1-32.1h276.9
		c17.7,0,32.1,14.4,32.1,32.1v405.2C426.5,476.2,412.1,490.5,394.4,490.5z"/>
	<path class="st5" d="M21.3,394.3V117.4c0-17.7,14.4-32.1,32.1-32.1h405.2c17.7,0,32.1,14.4,32.1,32.1v276.9
		c0,17.7-14.4,32.1-32.1,32.1H53.4C35.6,426.4,21.3,412,21.3,394.3z"/>
	<path class="st5" d="M426.2,458.5H85.5c-17.8,0-32.3-14.5-32.3-32.3V85.5c0-17.8,14.5-32.3,32.3-32.3h340.7
		c17.8,0,32.3,14.5,32.3,32.3v340.7C458.5,444.1,444,458.5,426.2,458.5z"/>
</g>
<g id="icon">
	<g>
		<path class="st6" d="M511.5,42.7v235.1H330.9l-187.1,70.2l49.4-70.2H1.4V42.7C1.4,19.8,20,1.3,42.8,1.3h427.3
			C492.9,1.3,511.5,19.8,511.5,42.7z"/>
		<path class="st7" d="M511.5,277.7V469c0,23.4-19,42.3-42.3,42.3H43.8c-23.4,0-42.3-19-42.3-42.3V277.7h191.8l-49.4,70.2
			l187.1-70.2H511.5z"/>
		<g>
			<path class="st8" d="M74,364.6h13.5l51.9,82l-1.8,1.9v-83.9h14.7v106h-13.6L87,389.9l1.8-1.9v82.7H74V364.6z"/>
			<path class="st8" d="M229.5,364.6h14.9v106.1h-14.9V364.6z M236.9,456.6h60.7v14.2h-60.7V456.6z"/>
			<path class="st8" d="M365.9,364.6h14.9v106.1h-14.9V364.6z M373.6,415.4h33.9c3.2,0,6-0.8,8.5-2.3c2.4-1.5,4.3-3.6,5.7-6.4
				c1.3-2.8,2-6,2-9.6c0-3.6-0.7-6.9-2-9.6c-1.3-2.8-3.2-4.9-5.7-6.5c-2.4-1.5-5.3-2.3-8.5-2.3h-33.9v-14.2H407
				c6.3,0,11.9,1.3,16.7,4c4.8,2.7,8.5,6.5,11.2,11.4c2.7,4.9,4,10.6,4,17.1c0,6.5-1.3,12.1-4,17c-2.7,4.9-6.4,8.7-11.2,11.3
				c-4.8,2.7-10.4,4-16.7,4h-33.4V415.4z"/>
		</g>
		<g>
			<path class="st8" d="M72,82.8h85.3v10.9h-13.1v94.9c-0.7,2.7-2.8,4-6.1,4c-1.9,0-3.4-0.6-4.7-1.7l-53.9-49
				c-1-0.8-1.4-1.9-1.4-3.5c0-2,0.6-3.3,1.8-4l53.5-32.7v-7.9H72V82.8z M133.5,177.2v-64.4l-42.4,26.5L133.5,177.2z"/>
			<path class="st8" d="M197.9,82.8v10.9h-14v94.9c0,1.7-1.9,2.6-5.6,2.6c-3.4,0-5.2-1-5.2-3V93.7h-18.3V82.8H197.9z"/>
			<path class="st8" d="M257.2,101.3c0,1.5-0.1,3.1-0.3,4.8c-0.7,5-3.4,9.4-8.2,13.2c-4.8,3.9-9.7,5.8-14.8,5.8
				c-5.1,0-9.3-1.7-12.8-5.2c-3.4-3.5-5.1-7.7-5.1-12.8c0-1.7,0.2-3.4,0.7-5.2c3.3-12.6,10.6-18.9,21.8-18.9
				C251,83.1,257.2,89.2,257.2,101.3z M278.9,188.9c0,1.2-0.6,2.2-1.9,3c-1.2,0.8-2.6,1.2-4.1,1.2c-1.6,0-3-0.5-4.2-1.4l-50-50.7
				c-0.6-1.2-0.9-2.3-0.9-3.3c0-2.9,1.5-4.3,4.6-4.3c1.4,0,2.7,0.5,4.1,1.4l51.2,51.7C278.5,187.3,278.9,188.1,278.9,188.9z
				 M228,100.8c-0.8,2-1.2,3.9-1.2,5.8c0,5.8,2.5,8.7,7.6,8.7c4.6,0,8.4-2.8,11.4-8.5c0.7-2.3,1-4.3,1-6c0-5.6-2.8-8.3-8.3-8
				C233.5,93.2,229.9,95.8,228,100.8z"/>
			<path class="st8" d="M400.5,82.8v10.9h-13.1v94.9c0,3.6-1.9,5.4-5.6,5.4c-3.4,0-5.2-1.7-5.2-5.1v-50.4
				c-6.8-12.9-13.7-19.4-20.6-19.4c-5.4,0-10,4.2-13.7,12.6c-0.9,1-2.5,1.4-4.7,1.4c-2.2,0-3.8-0.6-4.8-1.8
				c-3.2-8.9-9.2-13.4-18-13.4c-8.3,0-14.3,3.9-18,11.8c-1,2.8-1.4,5.4-1.4,7.9c0,5.7,2.1,10.5,6.3,14.1c4.2,3.7,9.2,5.6,15.1,5.6
				c1.1,0,2.1-0.1,3.1-0.2c2.2,0.8,3.3,2.3,3.3,4.2c0,2.4-1.1,4.3-3.3,5.5c-1.1,0.1-2.3,0.2-3.6,0.2c-8.8,0-16.2-2.9-22.2-8.7
				c-5.9-5.9-8.9-12.8-8.9-20.7c0-5.4,1.6-10.7,4.7-15.7c5.9-9.5,14.2-14.2,24.9-14.2c9.3,0,16.9,3.9,22.7,11.6
				c5.9-6.9,11.8-10.4,17.8-10.4c6.6,0,13.7,4,21.3,11.9V93.7h-97.5V82.8H400.5z"/>
			<path class="st8" d="M440.4,82.8v10.9h-14v94.9c0,1.7-1.9,2.6-5.6,2.6c-3.4,0-5.2-1-5.2-3V93.7h-18.3V82.8H440.4z"/>
		</g>
	</g>
</g>
</svg>
